<?xml version="1.0" encoding="UTF-8" standalone="no"?>
<!-- Uploaded to: SVG Repo, www.svgrepo.com, Transformed by: SVG Repo Mixer Tools -->

<svg
   width="64px"
   height="64px"
   viewBox="-2 -2 24.00 24.00"
   version="1.1"
   fill="#ffffff"
   transform="rotate(0)"
   stroke="#ffffff"
   id="svg1"
   sodipodi:docname="link.svg"
   inkscape:version="1.4 (86a8ad7, 2024-10-11)"
   xmlns:inkscape="http://www.inkscape.org/namespaces/inkscape"
   xmlns:sodipodi="http://sodipodi.sourceforge.net/DTD/sodipodi-0.dtd"
   xmlns="http://www.w3.org/2000/svg"
   xmlns:svg="http://www.w3.org/2000/svg">
  <defs
     id="defs2" />
  <sodipodi:namedview
     id="namedview1"
     pagecolor="#ffffff"
     bordercolor="#cccccc"
     borderopacity="1"
     inkscape:showpageshadow="0"
     inkscape:pageopacity="1"
     inkscape:pagecheckerboard="0"
     inkscape:deskcolor="#d1d1d1"
     inkscape:zoom="13.078125"
     inkscape:cx="32"
     inkscape:cy="32"
     inkscape:window-width="1920"
     inkscape:window-height="1017"
     inkscape:window-x="-8"
     inkscape:window-y="-8"
     inkscape:window-maximized="1"
     inkscape:current-layer="svg1" />
  <g
     id="SVGRepo_bgCarrier"
     stroke-width="0"
     style="fill:#89eaea;fill-opacity:0.59629101">
    <rect
       x="-2"
       y="-2"
       width="24.00"
       height="24.00"
       rx="2.16"
       fill="#fbe9bd"
       strokewidth="0"
       id="rect1"
       style="fill:#89eaea;fill-opacity:0.59629101" />
  </g>
  <g
     id="SVGRepo_tracerCarrier"
     stroke-linecap="round"
     stroke-linejoin="round" />
  <g
     id="SVGRepo_iconCarrier">
    <title
       id="title1">link_round [#ffffff]</title>
    <desc
       id="desc1">Created with Sketch.</desc>
    <defs
       id="defs1" />
    <g
       id="Page-1"
       stroke="none"
       stroke-width="1"
       fill="none"
       fill-rule="evenodd">
      <g
         id="Dribbble-Light-Preview"
         transform="translate(-380.000000, -3279.000000)"
         fill="#ffffff">
        <g
           id="icons"
           transform="translate(56.000000, 160.000000)">
          <path
             d="M342.238743,3120.76128 C339.890401,3118.41291 336.082738,3118.41291 333.734396,3120.76128 L331.165552,3123.33016 L332.582776,3124.7474 L335.15162,3122.17852 C336.718184,3120.61194 339.253953,3120.61194 340.821519,3122.17852 C342.384074,3123.7421 342.384074,3126.28491 340.821519,3127.84849 L338.252675,3130.41737 L339.669899,3131.83461 L342.238743,3129.26573 C344.587086,3126.91736 344.587086,3123.10965 342.238743,3120.76128 L342.238743,3120.76128 Z M332.84838,3135.82073 C332.091659,3136.57846 331.084367,3136.99541 330.013932,3136.99541 C328.943496,3136.99541 327.936205,3136.57846 327.179483,3135.82073 C325.615926,3134.25815 325.615926,3131.71433 327.179483,3130.15176 L329.748327,3127.58288 L328.330101,3126.16464 L325.761257,3128.73352 C323.412914,3131.08189 323.412914,3134.8896 325.761257,3137.23897 C326.935929,3138.41266 328.474429,3139 330.013932,3139 C331.553434,3139 333.091934,3138.41266 334.266607,3137.23897 L336.835451,3134.6701 L335.417224,3133.25185 L332.84838,3135.82073 Z M336.263149,3125.31971 L337.680373,3126.73695 L331.721817,3132.69558 L330.304593,3131.27834 L336.263149,3125.31971 Z"
             id="link_round-[#ffffff]"
             style="fill:#000000" />
        </g>
      </g>
    </g>
  </g>
</svg>
